<?xml version="1.0" encoding="UTF-8"?>
<svg id="Layer_1" data-name="Layer 1" xmlns="http://www.w3.org/2000/svg" viewBox="0 0 481 490.5">
  <defs>
    <style>
      .cls-1 {
        fill: none;
        stroke: #000;
        stroke-miterlimit: 10;
        stroke-width: 6px;
      }
    </style>
  </defs>
  <path class="cls-1" d="M240.5,12.5c131.17,0,237.5,106.33,237.5,237.5s-106.33,237.5-237.5,237.5S3,381.17,3,250c0-43.26,11.57-83.83,31.78-118.76"/>
  <line class="cls-1" x1="243.5" y1="10" x2="243.5" y2="113"/>
  <path class="cls-1" d="M105.5,159c2.72-3.38,10.65-1.48,21,1,17.88,4.28,24.22,12.02,46,26,14.06,9.02,14.26,7.63,50,29,3.05,1.82,12.98,7.83,24,18,9.82,9.06,15.15,14.09,16,21,1.49,12.04-11.04,26.28-22,30.5-46.08,17.72-147.64-109.79-135-125.5Z"/>
</svg>